# xmcd
#
# Track frame offsets:
# 150
# 6643
# 17895
# 30607
# 41599
# 57512
# 68504
# 82517
# 93350
# 105282
# 120494
# 134926
# 142178
# 155350
# 168142
# 176814
# 188107
# 200300
# 214812
#
# Disc length: 3017 seconds
#
#
# Revision: 0
# Processed by: cddbd v1.5.1PL2 Copyright (c) Steve Scherf et al.
# Submitted via: FreeRIP 2.944 
#
DISCID=030bc713
DTITLE=Rancid - ...And Out Came The Wolves
DYEAR=1995
DGENRE=Punk Rock
TTITLE0=Maxwell Murder
TTITLE1=The 11th Hour
TTITLE2=Roots Radicals
TTITLE3=Time Bomb
TTITLE4=Olympia Wa.
TTITLE5=Lock, Step and Gone
TTITLE6=Junkie Man
TTITLE7=Listed M.I.A.
TTITLE8=Ruby Soho
TTITLE9=Daly City Train
TTITLE10=Journey To The End Of The East Bay
TTITLE11=She's Automatic
TTITLE12=Old Friend
TTITLE13=Disorder And Disarray
TTITLE14=The Wars End
TTITLE15=You Don't Care Nothin'
TTITLE16=As Wicked
TTITLE17=Avenues and Alleyways
TTITLE18=The Way I Feel
EXTD=YEAR: 1995 ID3G: 121
EXTT0=
EXTT1=
EXTT2=
EXTT3=
EXTT4=
EXTT5=
EXTT6=
EXTT7=
EXTT8=
EXTT9=
EXTT10=
EXTT11=
EXTT12=
EXTT13=
EXTT14=
EXTT15=
EXTT16=
EXTT17=
EXTT18=
PLAYORDER=
